<svg xmlns="http://www.w3.org/2000/svg" width="60" height="75" viewBox="0 0 60 75" fill="none"><path d="M0 35.625H60V65.625C60 68.1114 59.0123 70.496 57.2541 72.2541C55.496 74.0123 53.1114 75 50.625 75H9.375C6.88859 75 4.50403 74.0123 2.74587 72.2541C0.98772 70.496 0 68.1114 0 65.625V35.625Z" fill="#2D5BF6"></path><path d="M0 30H60V60C60 62.4864 59.0123 64.871 57.2541 66.6291C55.496 68.3873 53.1114 69.375 50.625 69.375H9.375C6.88859 69.375 4.50403 68.3873 2.74587 66.6291C0.98772 64.871 0 62.4864 0 60V30Z" fill="#6C8CF9"></path><path d="M50.625 5.625H33.2227C33.5603 6.19241 33.7404 6.83971 33.7441 7.5C33.7441 8.49456 33.349 9.44839 32.6458 10.1516C31.9425 10.8549 30.9887 11.25 29.9941 11.25C28.9996 11.25 28.0457 10.8549 27.3425 10.1516C26.6392 9.44839 26.2441 8.49456 26.2441 7.5C26.2514 6.83863 26.4355 6.19125 26.7773 5.625H9.375C6.88859 5.625 4.50403 6.61272 2.74587 8.37087C0.98772 10.129 0 12.5136 0 15V54.375C0 56.8614 0.98772 59.246 2.74587 61.0041C4.50403 62.7623 6.88859 63.75 9.375 63.75H37.5205L60 41.25V15C60 12.5136 59.0123 10.129 57.2541 8.37087C55.496 6.61272 53.1114 5.625 50.625 5.625Z" fill="#C0CEFC"></path><path d="M35.625 63.75V48.75C35.625 46.2636 36.6127 43.879 38.3709 42.1209C40.129 40.3627 42.5136 39.375 45 39.375H60L59.9443 41.25L37.5 63.75H35.625Z" fill="#2D5BF6"></path><path d="M30.0002 3.75C30.7419 3.75 31.4669 3.96993 32.0836 4.38199C32.7003 4.79404 33.181 5.37971 33.4648 6.06494C33.7486 6.75016 33.8229 7.50416 33.6782 8.23159C33.5335 8.95902 33.1763 9.6272 32.6519 10.1516C32.1274 10.6761 31.4593 11.0332 30.7318 11.1779C30.0044 11.3226 29.2504 11.2484 28.5652 10.9645C27.88 10.6807 27.2943 10.2001 26.8822 9.58339C26.4702 8.9667 26.2502 8.24168 26.2502 7.5C26.2514 6.50579 26.6469 5.55264 27.3499 4.84963C28.0529 4.14662 29.006 3.75116 30.0002 3.75ZM30.0002 0C28.5169 0 27.0668 0.439867 25.8335 1.26398C24.6001 2.08809 23.6388 3.25943 23.0712 4.62987C22.5035 6.00032 22.355 7.50832 22.6444 8.96318C22.9337 10.418 23.6481 11.7544 24.6969 12.8033C25.7458 13.8522 27.0822 14.5665 28.5371 14.8559C29.9919 15.1453 31.4999 14.9968 32.8704 14.4291C34.2408 13.8614 35.4122 12.9001 36.2363 11.6668C37.0604 10.4334 37.5002 8.98336 37.5002 7.5C37.5002 5.51088 36.7101 3.60322 35.3035 2.1967C33.897 0.790176 31.9894 0 30.0002 0V0Z" fill="#2D5BF6"></path></svg>