<svg xmlns="http://www.w3.org/2000/svg" width="61" height="76" viewBox="0 0 61 76" fill="none"><path opacity="0.3" d="M61.0002 22.8V51.3C61.0002 53.8196 59.9961 56.2359 58.2086 58.0175C56.4212 59.7991 53.9968 60.8 51.469 60.8H24.7815C22.2537 60.8 19.8293 59.7991 18.0419 58.0175C16.2544 56.2359 15.2502 53.8196 15.2502 51.3V9.5C15.2502 6.98044 16.2544 4.56408 18.0419 2.78249C19.8293 1.00089 22.2537 0 24.7815 0L38.1535 0L61.0002 22.8Z" fill="#2D5BF6"></path><path d="M61 22.8H47.6563C45.1284 22.8 42.7041 21.7991 40.9166 20.0175C39.1292 18.2359 38.125 15.8196 38.125 13.3V0H38.1533L61 22.8Z" fill="#2D5BF6"></path><path d="M40.0312 32.3C40.0312 32.8039 39.8304 33.2872 39.4729 33.6435C39.1154 33.9998 38.6306 34.2 38.125 34.2H30.5C29.9944 34.2 29.5096 33.9998 29.1521 33.6435C28.7946 33.2872 28.5938 32.8039 28.5938 32.3C28.5938 31.7961 28.7946 31.3128 29.1521 30.9565C29.5096 30.6002 29.9944 30.4 30.5 30.4H38.125C38.6306 30.4 39.1154 30.6002 39.4729 30.9565C39.8304 31.3128 40.0312 31.7961 40.0312 32.3Z" fill="#2D5BF6"></path><path d="M47.6563 39.9C47.6563 40.4039 47.4554 40.8872 47.0979 41.2435C46.7404 41.5998 46.2556 41.8 45.75 41.8H30.5C29.9944 41.8 29.5096 41.5998 29.1521 41.2435C28.7946 40.8872 28.5938 40.4039 28.5938 39.9C28.5938 39.3961 28.7946 38.9128 29.1521 38.5565C29.5096 38.2002 29.9944 38 30.5 38H45.75C46.2556 38 46.7404 38.2002 47.0979 38.5565C47.4554 38.9128 47.6563 39.3961 47.6563 39.9Z" fill="#2D5BF6"></path><path d="M47.5997 47.5C47.5997 47.7497 47.5503 47.997 47.4543 48.2278C47.3583 48.4585 47.2176 48.6681 47.0403 48.8445C46.863 49.021 46.6525 49.1609 46.4208 49.2562C46.1892 49.3515 45.941 49.4004 45.6904 49.4H30.5C29.9944 49.4 29.5096 49.1998 29.1521 48.8435C28.7946 48.4872 28.5938 48.0039 28.5938 47.5C28.5938 46.9961 28.7946 46.5128 29.1521 46.1565C29.5096 45.8002 29.9944 45.6 30.5 45.6H45.6904C46.196 45.6 46.6809 45.8002 47.0384 46.1565C47.3958 46.5128 47.5967 46.9961 47.5967 47.5H47.5997Z" fill="#2D5BF6"></path><path opacity="0.7" d="M51.4685 60.8003H24.781C22.2532 60.8003 19.8289 59.7994 18.0414 58.0178C16.2539 56.2362 15.2498 53.8198 15.2498 51.3003V9.50025C15.252 8.91797 15.3078 8.33712 15.4166 7.76501C13.2287 8.16978 11.252 9.32476 9.82884 11.0298C8.40572 12.7348 7.62598 14.8824 7.62476 17.1003V58.9003C7.62476 61.4198 8.62894 63.8362 10.4164 65.6178C12.2038 67.3994 14.6282 68.4003 17.156 68.4003H43.8435C46.0687 68.399 48.2233 67.6219 49.9339 66.2034C51.6446 64.785 52.8034 62.8147 53.2094 60.634C52.6355 60.7424 52.0527 60.7981 51.4685 60.8003Z" fill="#2D5BF6"></path><path d="M43.8438 68.4002H17.1562C14.6284 68.4002 12.2041 67.3993 10.4166 65.6177C8.62918 63.8361 7.625 61.4198 7.625 58.9002V17.1002C7.62496 16.5187 7.6783 15.9383 7.78435 15.3665C5.59815 15.7727 3.62329 16.9281 2.20169 18.6327C0.780092 20.3373 0.00124659 22.4836 0 24.7002V66.5002C0 69.0198 1.00418 71.4361 2.79164 73.2177C4.57909 74.9993 7.0034 76.0002 9.53125 76.0002H36.2188C38.4426 75.999 40.5961 75.2227 42.3062 73.8057C44.0164 72.3888 45.1756 70.4204 45.5832 68.2414C45.0095 68.3471 44.4272 68.4003 43.8438 68.4002Z" fill="#2D5BF6"></path></svg>