<svg xmlns="http://www.w3.org/2000/svg" width="74" height="75" viewBox="0 0 74 75" fill="none"><path d="M59.1991 22.5V65.625C59.1991 68.1114 58.2246 70.496 56.4899 72.2541C54.7552 74.0123 52.4025 75 49.9492 75H9.24986C6.79665 75 4.44391 74.0123 2.70922 72.2541C0.974536 70.496 0 68.1114 0 65.625V9.375C0 6.8886 0.974536 4.50403 2.70922 2.74587C4.44391 0.987721 6.79665 0 9.24986 0L37.0182 0L59.1991 22.5Z" fill="#C0CEFC"></path><path d="M59.1984 22.5H46.2486C43.7954 22.5 41.4427 21.5123 39.708 19.7541C37.9733 17.996 36.9988 15.6114 36.9988 13.125V0H37.0176L59.1984 22.5Z" fill="#2D5BF6"></path><path d="M27.8049 28.1248C27.8049 28.622 27.61 29.099 27.263 29.4506C26.9161 29.8022 26.4456 29.9998 25.9549 29.9998H14.8002C14.3095 29.9998 13.839 29.8022 13.492 29.4506C13.1451 29.099 12.9502 28.622 12.9502 28.1248C12.9502 27.6275 13.1451 27.1506 13.492 26.7989C13.839 26.4473 14.3095 26.2498 14.8002 26.2498H25.9549C26.4456 26.2498 26.9161 26.4473 27.263 26.7989C27.61 27.1506 27.8049 27.6275 27.8049 28.1248Z" fill="#2D5BF6"></path><path d="M38.9047 35.6248C38.9047 36.122 38.7098 36.599 38.3628 36.9506C38.0159 37.3022 37.5454 37.4998 37.0547 37.4998H14.7972C14.3066 37.4998 13.836 37.3022 13.4891 36.9506C13.1422 36.599 12.9473 36.122 12.9473 35.6248C12.9473 35.1275 13.1422 34.6506 13.4891 34.2989C13.836 33.9473 14.3066 33.7498 14.7972 33.7498H37.0547C37.5454 33.7498 38.0159 33.9473 38.3628 34.2989C38.7098 34.6506 38.9047 35.1275 38.9047 35.6248Z" fill="#2D5BF6"></path><path d="M40.9786 57.8964C40.6315 57.5453 40.1611 57.348 39.6706 57.348C39.1802 57.348 38.7097 57.5453 38.3626 57.8964L37.1341 59.1416C35.1353 56.978 33.187 56.0185 31.2258 56.2631C29.3469 56.496 28.2152 57.728 27.3119 58.7299C26.6269 59.4843 26.1803 59.9501 25.6759 60.0131C25.4533 59.9926 24.8867 59.3408 24.5399 58.9248C23.6857 57.8994 22.5165 56.5019 20.5711 56.2617C18.1632 55.9687 15.8016 57.4335 13.3244 60.7397C13.1728 60.9355 13.0611 61.1599 12.996 61.3999C12.9308 61.6399 12.9135 61.8906 12.9449 62.1375C12.9764 62.3843 13.056 62.6224 13.1792 62.8377C13.3023 63.0531 13.4666 63.2414 13.6623 63.3917C13.858 63.5421 14.0813 63.6514 14.3192 63.7133C14.557 63.7753 14.8047 63.7886 15.0477 63.7526C15.2906 63.7165 15.5241 63.6318 15.7345 63.5033C15.9448 63.3749 16.1278 63.2052 16.2728 63.0043C17.7947 60.9726 19.1937 59.8593 20.1259 59.9838C20.5942 60.041 21.0596 60.561 21.7158 61.3476C22.5829 62.3803 23.7392 63.7661 25.6181 63.7661C25.7842 63.766 25.9503 63.7557 26.1152 63.7353C27.9941 63.5039 29.1229 62.2705 30.0276 61.27C30.7141 60.5141 31.1607 60.0483 31.6651 59.9853C32.593 59.8593 33.9978 60.9741 35.5183 63.0073C35.6895 63.2343 35.9099 63.4185 36.1625 63.5455C36.4151 63.6725 36.6932 63.7389 36.9751 63.7397C37.0084 63.7397 37.0416 63.7397 37.0749 63.7397H37.1414C37.5983 63.719 38.0312 63.5263 38.3554 63.1992L40.9714 60.5478C41.3192 60.1972 41.5153 59.7209 41.5167 59.2236C41.518 58.7264 41.3245 58.249 40.9786 57.8964Z" fill="#2D5BF6"></path><path d="M59.2927 31.3812L38.362 52.5878C37.8466 53.1101 37.4378 53.7303 37.1588 54.4128C36.8799 55.0953 36.7363 55.8268 36.7363 56.5656C36.7363 58.0575 37.3211 59.4884 38.362 60.5433C39.4029 61.5983 40.8146 62.191 42.2867 62.191C43.7587 62.191 45.1705 61.5983 46.2114 60.5433L67.1406 39.3353L59.2927 31.3812Z" fill="#6C8CF9"></path><path d="M69.7569 36.6842L72.3729 34.0328C73.4141 32.978 73.9993 31.5472 73.9997 30.0551C74.0002 28.563 73.4157 27.1319 72.375 26.0765C71.3343 25.0212 69.9226 24.428 68.4504 24.4276C66.9782 24.4272 65.5662 25.0195 64.5249 26.0743L59.293 31.377L67.1409 39.3326L68.4489 40.6583L65.8329 43.3111C65.4943 43.6645 65.3065 44.1386 65.3101 44.6311C65.3136 45.1237 65.5083 45.595 65.8519 45.9433C66.1955 46.2915 66.6606 46.4888 67.1465 46.4924C67.6324 46.496 68.1003 46.3056 68.4489 45.9625L72.3743 41.984C72.7208 41.6322 72.9154 41.1554 72.9154 40.6583C72.9154 40.1612 72.7208 39.6844 72.3743 39.3326L69.7569 36.6842Z" fill="#9E2D2D"></path><path d="M69.7569 36.6842L72.3729 34.0328C73.4141 32.978 73.9993 31.5472 73.9997 30.0551C74.0002 28.563 73.4157 27.1319 72.375 26.0765C71.3343 25.0212 69.9226 24.428 68.4504 24.4276C66.9782 24.4272 65.5662 25.0195 64.5249 26.0743L59.293 31.377L67.1409 39.3326L68.4489 40.6583L65.8329 43.3111C65.4943 43.6645 65.3065 44.1386 65.3101 44.6311C65.3136 45.1237 65.5083 45.595 65.8519 45.9433C66.1955 46.2915 66.6606 46.4888 67.1465 46.4924C67.6324 46.496 68.1003 46.3056 68.4489 45.9625L72.3743 41.984C72.7208 41.6322 72.9154 41.1554 72.9154 40.6583C72.9154 40.1612 72.7208 39.6844 72.3743 39.3326L69.7569 36.6842Z" fill="#2D5BF6"></path></svg>