<svg xmlns="http://www.w3.org/2000/svg" width="72" height="75" viewBox="0 0 72 75" fill="none"><path d="M37.7048 0H9.42105C6.92243 0 4.52615 0.987721 2.75936 2.74587C0.992572 4.50403 0 6.8886 0 9.375V65.625C0 68.1114 0.992572 70.496 2.75936 72.2541C4.52615 74.0123 6.92243 75 9.42105 75H50.8737C53.3723 75 55.7686 74.0123 57.5353 72.2541C59.3021 70.496 60.2947 68.1114 60.2947 65.625V22.5L37.7048 0Z" fill="#C0CEFC"></path><path d="M37.6846 0V13.125C37.6846 15.6114 38.6771 17.996 40.4439 19.7541C42.2107 21.5123 44.607 22.5 47.1056 22.5H60.2951L37.6846 0Z" fill="#2D5BF6"></path><path d="M30.1469 37.4999C30.1469 37.7461 30.0982 37.9899 30.0035 38.2174C29.9088 38.4449 29.77 38.6516 29.595 38.8257C29.4201 38.9998 29.2124 39.1379 28.9838 39.2322C28.7552 39.3264 28.5101 39.3749 28.2627 39.3749H16.9575C16.4577 39.3749 15.9785 39.1773 15.6251 38.8257C15.2718 38.4741 15.0732 37.9972 15.0732 37.4999C15.0732 37.0026 15.2718 36.5257 15.6251 36.1741C15.9785 35.8224 16.4577 35.6249 16.9575 35.6249H28.2627C28.7624 35.6249 29.2417 35.8224 29.595 36.1741C29.9484 36.5257 30.1469 37.0026 30.1469 37.4999Z" fill="#2D5BF6"></path><path d="M41.4522 45.0001C41.4522 45.4974 41.2537 45.9743 40.9003 46.3259C40.5469 46.6776 40.0677 46.8751 39.568 46.8751H16.9575C16.4577 46.8751 15.9785 46.6776 15.6251 46.3259C15.2718 45.9743 15.0732 45.4974 15.0732 45.0001C15.0732 44.5028 15.2718 44.0259 15.6251 43.6743C15.9785 43.3227 16.4577 43.1251 16.9575 43.1251H39.568C40.0677 43.1251 40.5469 43.3227 40.9003 43.6743C41.2537 44.0259 41.4522 44.5028 41.4522 45.0001Z" fill="#2D5BF6"></path><path d="M41.3933 52.4999C41.3933 52.9972 41.1948 53.4741 40.8414 53.8257C40.4881 54.1773 40.0088 54.3749 39.5091 54.3749H16.9575C16.4577 54.3749 15.9785 54.1773 15.6251 53.8257C15.2718 53.4741 15.0732 52.9972 15.0732 52.4999C15.0732 52.0026 15.2718 51.5257 15.6251 51.1741C15.9785 50.8224 16.4577 50.6249 16.9575 50.6249H39.512C40.0112 50.6257 40.4897 50.8235 40.8425 51.1751C41.1952 51.5266 41.3933 52.0031 41.3933 52.4999Z" fill="#2D5BF6"></path><path d="M58.4111 74.9998C65.6955 74.9998 71.6006 69.1235 71.6006 61.8748C71.6006 54.626 65.6955 48.7498 58.4111 48.7498C51.1268 48.7498 45.2217 54.626 45.2217 61.8748C45.2217 69.1235 51.1268 74.9998 58.4111 74.9998Z" fill="#2D5BF6"></path><path d="M57.6563 67.4999C57.2152 67.4983 56.7885 67.3428 56.4507 67.0604L53.436 64.5599C53.0624 64.2385 52.8306 63.784 52.7904 63.2941C52.7502 62.8043 52.9049 62.3184 53.2211 61.9409C53.5374 61.5635 53.9899 61.3246 54.4813 61.2758C54.9727 61.2271 55.4637 61.3722 55.8487 61.68L57.1735 62.7787L60.5592 57.1551C60.6866 56.944 60.8545 56.7599 61.0534 56.6134C61.2523 56.4668 61.4782 56.3607 61.7183 56.3011C61.9584 56.2414 62.208 56.2294 62.4527 56.2658C62.6975 56.3021 62.9327 56.386 63.1448 56.5128C63.357 56.6396 63.542 56.8067 63.6892 57.0046C63.8365 57.2025 63.9431 57.4273 64.0031 57.6663C64.063 57.9052 64.0751 58.1535 64.0386 58.3971C64.0021 58.6406 63.9177 58.8747 63.7903 59.0858L59.2682 66.5858C59.1278 66.817 58.9388 67.0152 58.7142 67.1669C58.4896 67.3186 58.2347 67.4202 57.9669 67.4647C57.8646 67.4853 57.7607 67.497 57.6563 67.4999Z" fill="white"></path></svg>